<?xml version="1.0" encoding="utf-8"?>
<svg xmlns="http://www.w3.org/2000/svg" xmlns:xlink="http://www.w3.org/1999/xlink" style="margin: auto; background: none; display: block; shape-rendering: auto;" width="331px" height="331px" viewBox="0 0 100 100" preserveAspectRatio="xMidYMid">
<g transform="rotate(0 50 50)">
  <rect x="47" y="24" rx="3" ry="6" width="6" height="12" fill="#912623">
    <animate attributeName="opacity" values="1;0" keyTimes="0;1" dur="1.0204081632653061s" begin="-0.935374149659864s" repeatCount="indefinite"></animate>
  </rect>
</g><g transform="rotate(30 50 50)">
  <rect x="47" y="24" rx="3" ry="6" width="6" height="12" fill="#f0f5f6">
    <animate attributeName="opacity" values="1;0" keyTimes="0;1" dur="1.0204081632653061s" begin="-0.8503401360544218s" repeatCount="indefinite"></animate>
  </rect>
</g><g transform="rotate(60 50 50)">
  <rect x="47" y="24" rx="3" ry="6" width="6" height="12" fill="#a2b4bc">
    <animate attributeName="opacity" values="1;0" keyTimes="0;1" dur="1.0204081632653061s" begin="-0.7653061224489796s" repeatCount="indefinite"></animate>
  </rect>
</g><g transform="rotate(90 50 50)">
  <rect x="47" y="24" rx="3" ry="6" width="6" height="12" fill="#7394a4">
    <animate attributeName="opacity" values="1;0" keyTimes="0;1" dur="1.0204081632653061s" begin="-0.6802721088435374s" repeatCount="indefinite"></animate>
  </rect>
</g><g transform="rotate(120 50 50)">
  <rect x="47" y="24" rx="3" ry="6" width="6" height="12" fill="#32495c">
    <animate attributeName="opacity" values="1;0" keyTimes="0;1" dur="1.0204081632653061s" begin="-0.5952380952380952s" repeatCount="indefinite"></animate>
  </rect>
</g><g transform="rotate(150 50 50)">
  <rect x="47" y="24" rx="3" ry="6" width="6" height="12" fill="#0e151e">
    <animate attributeName="opacity" values="1;0" keyTimes="0;1" dur="1.0204081632653061s" begin="-0.5102040816326531s" repeatCount="indefinite"></animate>
  </rect>
</g><g transform="rotate(180 50 50)">
  <rect x="47" y="24" rx="3" ry="6" width="6" height="12" fill="#912623">
    <animate attributeName="opacity" values="1;0" keyTimes="0;1" dur="1.0204081632653061s" begin="-0.4251700680272109s" repeatCount="indefinite"></animate>
  </rect>
</g><g transform="rotate(210 50 50)">
  <rect x="47" y="24" rx="3" ry="6" width="6" height="12" fill="#f0f5f6">
    <animate attributeName="opacity" values="1;0" keyTimes="0;1" dur="1.0204081632653061s" begin="-0.3401360544217687s" repeatCount="indefinite"></animate>
  </rect>
</g><g transform="rotate(240 50 50)">
  <rect x="47" y="24" rx="3" ry="6" width="6" height="12" fill="#a2b4bc">
    <animate attributeName="opacity" values="1;0" keyTimes="0;1" dur="1.0204081632653061s" begin="-0.25510204081632654s" repeatCount="indefinite"></animate>
  </rect>
</g><g transform="rotate(270 50 50)">
  <rect x="47" y="24" rx="3" ry="6" width="6" height="12" fill="#7394a4">
    <animate attributeName="opacity" values="1;0" keyTimes="0;1" dur="1.0204081632653061s" begin="-0.17006802721088435s" repeatCount="indefinite"></animate>
  </rect>
</g><g transform="rotate(300 50 50)">
  <rect x="47" y="24" rx="3" ry="6" width="6" height="12" fill="#32495c">
    <animate attributeName="opacity" values="1;0" keyTimes="0;1" dur="1.0204081632653061s" begin="-0.08503401360544217s" repeatCount="indefinite"></animate>
  </rect>
</g><g transform="rotate(330 50 50)">
  <rect x="47" y="24" rx="3" ry="6" width="6" height="12" fill="#0e151e">
    <animate attributeName="opacity" values="1;0" keyTimes="0;1" dur="1.0204081632653061s" begin="0s" repeatCount="indefinite"></animate>
  </rect>
</g>
<!-- [ldio] generated by https://loading.io/ --></svg>